<?xml version="1.0" encoding="UTF-8"?>
<svg id="Layer_2" data-name="Layer 2" xmlns="http://www.w3.org/2000/svg" viewBox="0 0 1886.3 2100.24">
  <g id="Layer_1-2" data-name="Layer 1">
    <path d="m1885.31,631.69c-.4-77.05-34.33-136-101.14-174.86-12.24-7.32-24.22-14.37-36.33-21.56-55.09-32.07-110.18-64.27-165.27-96.34-99.67-58.29-199.34-116.57-299.28-174.59-96.34-56.02-176.32-101.53-251.37-143.32-25.28-14.11-51.23-21.02-78.11-21.02s-54.29,6.79-83.17,20.62c-16.1,7.45-31.67,16.24-46.18,24.62-71.46,41.38-142.92,83.04-214.25,124.55-161.95,94.35-329.49,192.02-495.69,285.7C37.74,498.88,1.68,558.63,1.01,643.4-.19,900.49-.32,1166.11.61,1455.54c.13,87.43,34.47,149.31,105.13,189.23,87.96,49.77,176.59,101.4,262.28,151.43,33.93,19.7,67.73,39.52,101.67,59.22,32.07,18.63,64.27,37.13,96.34,55.62,86.63,50.17,176.19,101.93,263.75,153.83,77.45,46.18,146.65,47.11,217.84,2.93,37.13-23.02,75.45-44.84,112.58-65.87l3.59-2.13v-14.9l30.07,3.99c6.12.8,12.24,1.2,18.1,1.2,80.91,0,146.78-65.87,146.78-146.78s-65.87-146.91-146.78-146.91c-76.38,0-140.66,59.75-146.38,136l-1.73,24.62-16.1.13c-8.52,6.12-17.3,11.98-25.82,17.57l-4.79,3.19c-48.44,32.34-94.21,32.47-148.38.27-184.44-109.12-382.98-224.63-624.64-363.55-45.78-26.21-66.94-64.01-66.67-118.83,1.33-266.14,1.33-482.65,0-681.59-.53-54.16,22.09-92.75,71.06-120.96,195.48-112.84,422.64-244.32,646.33-376.19,41.52-24.35,77.31-23.82,119.9,1.46,91.95,55.22,186.17,110.18,277.32,163.28,39.26,22.89,78.38,45.64,117.5,68.53l34.6,20.23c64.81,37.93,129.48,75.72,193.89,113.91,32.87,19.56,70.39,49.5,70,108.85-1.2,230.08-.93,457.37-.13,727.77,0,39.92-16.1,70-47.64,89.82-3.86,2.4-7.59,4.66-11.44,6.92l-8.25,5.06c-24.75,15.04-49.5,29.94-74.39,44.58l-1.46.8c-1.46.8-2.93,1.6-4.39,2.26l-20.23,11.58-37.53-37.66c-3.59-2.53-7.05-5.59-10.51-9.18-40.99-43.65-82.5-87.03-124.42-131.21l-.91-.92c78.81-105.54,110.37-224.32,96.1-362.98-13.93-137.43-94.51-271.06-215.43-357.49-81.82-58.43-175.35-90.61-272.26-94.97-46.66-2.1-94.01,2.3-141.26,13.23-260.23,60.89-426.72,306.5-387.09,571.36,28.42,191.36,132.87,327.27,310.45,403.99l89.11-162.77c-153.27-60.44-240.01-216.86-207.32-378.04,23.44-115.37,102.5-205.86,211.51-242.38,111.71-37.34,232.56-11.52,323.52,69.03,121.94,108.17,129.1,295.45,57.28,404.19l-28.43-28.73c-17.17-27.15-21.42-48.17-22.62-55.89,0-.53-.13-.93-.13-1.33-.13-1.07-.13-1.73-.13-1.73-6.92-72.12-67.6-128.55-141.59-128.55-78.64,0-142.25,63.74-142.25,142.25,0,67.87,47.37,124.42,110.85,138.66v-.13s3.86.53,9.98,2c14.24,2.93,41.25,10.11,62.94,23.95,2.13,1.2,3.99,2.53,5.99,3.99,1.86,1.33,3.73,2.66,5.46,4.26,1.86,1.46,3.46,2.93,5.06,4.52,67.73,67.6,195.48,196.28,295.55,297.42,34.86,35.26,66.27,67.2,90.62,91.95.13.13.27.13.27.13,2.4,1.73,4.66,3.33,6.92,4.53,24.35,14.77,45.78,10.51,82.5-10.11,51.37-29.14,103.4-59.48,153.7-88.76l61.75-32.74c64.67-37.39,97.41-93.82,97.54-167.27v-.13c1.33-276.52,1.33-556.64,0-832.89Z"/>
  </g>
</svg>